<svg version="1.1" id="Layer_1" xmlns="http://www.w3.org/2000/svg" xmlns:xlink="http://www.w3.org/1999/xlink" x="0px" y="0px"
	 width="100%" viewBox="0 0 1024 1024" enable-background="new 0 0 1024 1024" xml:space="preserve">
<path fill="#010101" opacity="1.000000" stroke="none" 
	d="
M565.000000,1025.000000 
	C376.666656,1025.000000 188.833328,1025.000000 1.000000,1025.000000 
	C1.000000,683.666687 1.000000,342.333344 1.000000,1.000000 
	C342.333344,1.000000 683.666687,1.000000 1025.000000,1.000000 
	C1025.000000,342.333344 1025.000000,683.666687 1025.000000,1025.000000 
	C871.833313,1025.000000 718.666687,1025.000000 565.000000,1025.000000 
M447.737823,840.247375 
	C448.020721,840.361389 448.303650,840.475464 448.586548,840.589478 
	C448.418427,840.375366 448.250336,840.161255 447.942627,839.255615 
	C425.851776,802.203552 412.115204,743.305176 421.630402,723.073730 
	C434.270081,785.674500 462.919434,837.727783 513.321899,876.983704 
	C563.853699,836.963501 592.858154,784.969055 605.542542,723.105896 
	C611.358887,765.559570 600.213135,803.948242 578.018433,840.013794 
	C579.115417,839.940002 579.637390,840.007812 580.079163,839.850403 
	C580.696899,839.630371 581.282471,839.284302 581.834290,838.920227 
	C610.792725,819.815186 633.858521,795.400391 648.705627,763.796814 
	C662.997375,733.375427 666.450439,701.208557 662.422180,668.192749 
	C660.918396,655.867737 658.910339,643.382446 655.145630,631.605286 
	C648.930054,612.161438 641.107849,593.230835 633.928101,574.096985 
	C633.644287,573.340637 633.003723,572.718201 632.305298,571.709900 
	C630.052307,579.429504 629.964966,586.314697 632.499207,593.653259 
	C636.995728,606.674500 640.778931,619.960388 644.362122,633.269714 
	C645.763611,638.475464 645.820862,644.043030 646.490356,649.445801 
	C646.167542,649.450073 645.844788,649.454346 645.522034,649.458679 
	C638.782532,637.783264 632.042969,626.107849 625.303467,614.432434 
	C621.829529,624.276855 619.813477,632.870422 625.413147,642.519897 
	C630.656189,651.554810 633.765869,662.090393 636.384888,672.331177 
	C641.977783,694.201111 641.976501,716.163757 634.437744,737.758484 
	C633.897278,739.306641 632.914490,740.700317 632.137329,742.165833 
	C637.253784,715.022400 623.265869,661.960693 605.889954,645.260620 
	C602.715881,651.499573 602.968567,657.489563 606.017761,663.841919 
	C612.617737,677.591187 614.361511,688.375366 612.448364,699.883240 
	C610.892639,696.398315 609.550598,693.084106 607.952759,689.898193 
	C606.315369,686.633667 604.517456,683.440247 602.623169,680.316772 
	C600.867981,677.422607 598.892517,674.661987 597.014038,671.842529 
	C601.516479,692.044800 598.535400,725.079163 591.293884,732.233337 
	C590.597290,722.680969 590.324402,712.536377 589.000183,702.530945 
	C587.596619,691.926025 581.673706,679.448425 577.137939,675.299683 
	C572.105408,686.120850 564.568420,694.484680 554.476807,698.691345 
	C558.035767,710.290527 561.453369,721.429199 564.946472,732.813660 
	C566.489563,727.016541 568.048462,721.160156 569.554504,715.502380 
	C578.225037,729.775330 576.780273,761.713257 565.618530,784.603271 
	C559.869873,796.392273 552.455811,807.165588 541.638428,815.001038 
	C559.858276,786.515991 567.175415,743.872437 555.670166,727.143616 
	C555.677917,744.982788 550.218018,760.675842 542.051758,775.634277 
	C533.945312,790.483215 524.117188,804.514221 519.902588,821.262512 
	C519.867004,821.403809 519.362732,821.427246 519.120117,821.493958 
	C517.215576,803.722961 520.930725,787.114136 529.273071,771.388184 
	C536.678894,757.427673 542.494263,742.960693 541.070129,726.680786 
	C540.226624,717.037537 537.580078,707.964294 531.353455,700.103577 
	C533.638611,716.096497 531.491272,731.238770 524.116821,745.608215 
	C526.833679,724.668091 521.097473,705.670044 511.598114,687.467041 
	C507.623169,695.861572 503.751312,704.268860 499.681732,712.579224 
	C493.345215,725.519043 491.191498,739.102478 492.988953,753.358032 
	C493.411438,756.708862 493.795319,760.064636 494.196991,763.418091 
	C483.153625,745.917053 479.122925,726.977295 481.209412,706.366760 
	C477.288025,712.827515 473.372742,719.249146 471.100922,726.207397 
	C465.139404,744.466431 469.144012,761.688171 478.183044,778.041992 
	C483.252380,787.213562 488.779694,796.146118 493.525055,805.479004 
	C498.904907,816.059753 501.124664,831.745239 498.860840,840.742737 
	C492.862549,815.293457 474.375458,796.644470 462.610352,774.115234 
	C463.151062,782.116516 463.691742,790.117798 464.232452,798.119080 
	C463.712555,798.106384 463.192657,798.093689 462.672760,798.080994 
	C442.644989,763.422302 442.492065,729.521118 468.101379,696.593445 
	C458.653870,692.335999 453.087677,684.981628 449.529572,675.125427 
	C435.283569,692.207581 435.541260,712.088867 435.713715,732.017944 
	C427.476959,712.973633 424.437622,693.511475 430.008087,673.141235 
	C429.449707,672.972473 428.891296,672.803772 428.332886,672.635010 
	C423.226501,681.974731 418.120148,691.314392 412.823944,701.001282 
	C412.210144,687.115967 414.962738,674.401489 421.242371,662.531799 
	C424.570526,656.241028 422.717041,650.616394 420.133850,644.314270 
	C400.906067,674.973999 389.852448,706.999207 394.689880,743.246643 
	C393.389343,741.440430 392.523254,739.683960 391.939026,737.838318 
	C381.884125,706.072021 385.237152,675.186829 399.661072,645.692383 
	C404.282013,636.243225 406.685760,627.809021 402.174896,618.098816 
	C401.936951,617.586731 401.882629,616.989258 401.742798,616.431580 
	C401.288635,616.250793 400.834503,616.070007 400.380341,615.889221 
	C393.998230,627.028198 387.616119,638.167236 381.234039,649.306213 
	C380.701813,649.097839 380.169617,648.889404 379.637390,648.680969 
	C380.607117,643.068542 381.120026,637.329224 382.636688,631.868713 
	C386.413116,618.272156 390.520935,604.763123 394.748383,591.298279 
	C396.916016,584.394104 395.495270,577.923157 393.990112,570.759888 
	C389.532043,582.882446 385.209320,594.209595 381.201172,605.646973 
	C376.482117,619.112976 370.954620,632.420166 367.699524,646.248535 
	C361.219116,673.779053 360.582397,701.674988 366.705841,729.481018 
	C377.201477,777.140991 404.890808,812.556641 445.035248,839.026917 
	C445.908569,839.602783 447.164948,839.597656 447.737823,840.247375 
M604.918579,282.714478 
	C605.054138,282.918854 605.189758,283.123260 605.086426,283.959351 
	C581.707825,310.576538 573.299072,343.410645 567.284119,377.625824 
	C574.243774,369.044617 581.203430,360.463409 588.163086,351.882202 
	C588.802734,352.165649 589.442444,352.449066 590.082092,352.732513 
	C587.938293,360.838837 585.794495,368.945160 583.337769,378.234833 
	C595.412903,371.453796 606.887146,365.143494 618.231873,358.608337 
	C635.468689,348.679138 647.944275,343.318390 653.751221,343.609528 
	C631.827332,365.849670 621.158630,380.686218 619.787354,390.632233 
	C636.301453,389.462463 652.852539,387.707367 669.437683,387.283447 
	C685.196594,386.880646 711.824036,392.899658 718.418579,397.290131 
	C689.024353,395.755310 661.463013,402.130096 634.435608,411.500092 
	C677.195984,415.076996 738.507080,439.354065 742.761230,454.715668 
	C714.831238,441.792786 648.870178,428.164764 629.944092,431.548462 
	C640.574829,442.298492 654.078918,447.431763 667.781250,452.332794 
	C655.900208,453.513428 644.418030,453.365570 633.425842,448.730743 
	C632.165466,448.199310 630.600159,448.391083 629.903137,448.259766 
	C629.949280,448.012573 629.995422,447.765350 630.041565,447.518158 
	C629.783997,447.771210 629.526428,448.024261 629.894531,448.623535 
	C631.820923,451.131073 633.720642,453.659698 635.679016,456.141968 
	C640.627563,462.414124 645.302368,466.803955 654.719910,462.309021 
	C663.820862,457.965210 671.156982,462.059021 675.117004,471.593903 
	C677.007507,476.145569 677.499817,481.266479 679.263245,485.886078 
	C680.557129,489.275665 682.249817,493.004547 684.884277,495.293854 
	C691.402039,500.957428 698.627869,505.797577 705.451294,511.119751 
	C719.544189,522.111938 731.024597,535.351990 739.378845,551.210510 
	C740.118103,552.613770 740.586304,554.159851 741.180359,555.639648 
	C740.803833,555.865417 740.427368,556.091187 740.050842,556.316895 
	C724.867249,540.315369 707.334229,527.680908 686.831116,518.242310 
	C685.991821,518.196106 685.152588,518.149902 683.097229,518.036743 
	C684.794189,518.931213 685.437683,519.270447 686.448730,520.189392 
	C693.647644,529.445618 700.846558,538.701782 707.746155,548.295410 
	C707.746155,548.295410 707.475952,548.656677 706.847412,548.365906 
	C697.961853,543.526550 689.215088,538.405945 680.149231,533.931946 
	C672.082031,529.950745 672.224854,530.417053 668.273438,538.278137 
	C665.941223,542.917847 666.413269,546.223938 669.541077,550.332703 
	C680.461548,564.677856 689.486877,580.114563 695.350891,597.310669 
	C700.422058,612.181763 703.241516,627.352112 702.708984,643.151550 
	C701.938660,642.090698 701.514221,640.924866 701.103943,639.754089 
	C695.140259,622.738464 688.204895,606.108032 676.200134,592.413208 
	C667.826904,582.861267 658.340637,574.285034 649.071472,565.716309 
	C648.941711,565.681702 648.812012,565.647034 648.682251,565.612366 
	C648.684875,565.696289 648.687439,565.780212 648.690063,565.864136 
	C648.921387,565.672485 649.152710,565.480774 648.819458,566.018982 
	C649.081970,567.309570 649.266052,568.621948 649.619080,569.887329 
	C653.638855,584.297974 657.846985,598.658630 661.653076,613.125183 
	C663.506348,620.169312 663.426636,627.925537 666.265137,634.473694 
	C684.343994,676.180420 686.997681,718.763794 674.528076,762.289185 
	C671.540405,772.717651 667.232605,782.767883 663.419556,793.302612 
	C664.888733,792.242371 666.325623,791.423157 667.500366,790.323853 
	C678.549561,779.983826 690.247437,770.230774 700.438477,759.100159 
	C728.619019,728.321594 739.637268,691.675049 734.763977,650.377197 
	C731.473633,622.493225 721.957520,596.487000 709.416077,571.507935 
	C708.625549,569.933228 708.210388,568.169983 707.389221,565.837219 
	C712.825989,567.910583 713.244324,568.133118 721.215088,578.874817 
	C749.253296,616.660217 761.260254,659.128418 758.081665,705.985901 
	C757.969727,707.637146 757.929138,709.293213 757.855347,710.947021 
	C758.388245,711.071411 758.921204,711.195862 759.454163,711.320251 
	C764.102905,701.981384 769.392212,692.901367 773.289062,683.258606 
	C789.649475,642.773682 790.968567,601.978333 773.952209,561.315063 
	C764.754333,539.335266 749.732727,521.301331 733.640503,504.058716 
	C724.332825,494.085754 715.388306,483.773926 706.709839,473.256165 
	C706.845215,473.127899 706.980591,472.999603 707.811707,472.965332 
	C717.273193,478.857239 726.991272,484.378326 736.146118,490.713379 
	C759.746216,507.044281 780.895081,525.995667 796.399902,550.486633 
	C805.315918,564.570129 811.805115,579.814453 816.700684,597.302734 
	C817.576050,594.249756 818.276672,592.599426 818.507141,590.885864 
	C823.563293,553.303772 822.640503,516.053955 810.895142,479.689575 
	C799.021973,442.929626 780.403687,410.604797 747.483398,388.416443 
	C717.858337,368.449066 686.013000,358.541504 650.135742,367.731720 
	C648.644775,368.113647 647.010437,367.935516 644.007446,368.094177 
	C667.375854,352.627930 691.305542,347.440765 717.320984,353.596313 
	C744.935730,360.130249 767.470825,375.412811 786.987915,395.418030 
	C794.730286,403.354095 801.725647,412.019073 809.299927,420.623444 
	C808.964905,419.009857 808.817566,417.547852 808.355225,416.193420 
	C804.866882,405.975128 801.733337,395.610077 797.704712,385.606750 
	C787.143005,359.381683 771.941895,336.324677 749.145447,319.066772 
	C719.615173,296.711060 687.561096,290.927795 653.006042,306.250092 
	C635.581970,313.976196 620.851440,325.619293 607.858582,339.500549 
	C606.764832,340.669037 605.507507,341.684418 604.326111,342.770935 
	C613.034241,320.811737 627.002319,303.336517 646.719727,291.071259 
	C671.433594,275.697815 698.309509,274.725983 725.761780,281.548553 
	C735.370483,283.936584 744.614502,287.791565 753.947327,291.486969 
	C754.303833,291.480865 754.660400,291.474731 755.016907,291.468628 
	C754.990845,291.350861 754.973999,291.134216 754.937195,291.130798 
	C754.609009,291.100006 754.277344,291.106812 754.316406,290.451233 
	C736.787598,267.970306 716.054688,249.240692 690.287292,236.621002 
	C656.375977,220.012756 623.399963,219.707352 591.990845,242.968094 
	C571.207397,258.359802 557.974792,279.145416 549.073730,303.006897 
	C547.364990,307.587585 546.031738,312.308350 544.525269,316.964508 
	C544.592834,295.461578 549.493286,275.207947 560.180786,256.639099 
	C581.185120,220.145325 613.897766,202.343155 655.355896,198.274048 
	C653.922424,196.747040 652.613098,195.927216 651.214539,195.309357 
	C637.469910,189.237488 623.222595,184.889252 608.369690,182.433075 
	C571.431458,176.324661 528.007751,191.087402 505.991730,228.658783 
	C505.153717,230.088898 504.239227,231.474197 503.360413,232.880386 
	C504.745026,215.102448 511.008545,199.368942 521.434326,185.371033 
	C531.912354,171.302933 545.881958,161.343811 562.598938,152.509949 
	C560.056580,152.347702 559.133972,152.271255 558.209778,152.232407 
	C535.551208,151.279770 513.754028,155.365189 492.931213,164.151810 
	C454.455811,180.387314 432.842590,212.734558 434.255951,251.441711 
	C435.002563,271.888641 440.774017,291.044891 449.305389,309.487396 
	C450.188477,311.396393 450.719574,313.468201 451.413940,315.464478 
	C426.170013,289.960510 413.467560,259.858093 416.882935,224.027557 
	C375.242584,211.623672 294.634521,249.049698 272.185272,290.950195 
	C279.397552,288.463531 286.482513,285.627747 293.793152,283.609131 
	C301.305573,281.534821 308.973053,279.797424 316.684998,278.706879 
	C370.282104,271.127716 406.069427,304.469879 421.846161,342.182007 
	C421.686707,342.357422 421.527222,342.532837 420.826294,342.320190 
	C413.030701,335.082001 405.770935,327.139435 397.345001,320.729828 
	C364.235626,295.543732 328.847870,289.620331 291.085968,310.101135 
	C275.171356,318.732697 262.253357,330.923126 251.349991,345.273468 
	C234.420334,367.555328 224.490417,393.042084 217.608734,420.027893 
	C218.999680,419.173889 220.026398,418.055328 220.926910,416.842957 
	C236.627075,395.705658 255.531158,378.069305 278.740234,365.505249 
	C307.603180,349.880493 337.412048,345.379120 368.208496,360.011475 
	C373.040710,362.307465 377.553345,365.276245 382.213745,367.933899 
	C382.014923,368.340546 381.816132,368.747162 381.617310,369.153809 
	C379.722046,368.695068 377.849976,368.016266 375.927704,367.813995 
	C365.058197,366.670105 354.112305,364.310150 343.311798,364.832428 
	C315.781250,366.163757 292.004913,377.878387 270.627502,394.628906 
	C244.891281,414.794800 228.916840,441.805786 218.015091,472.045349 
	C204.689636,509.007904 202.279373,547.096497 207.394897,585.833801 
	C207.634720,587.649780 207.904495,589.462891 208.210785,591.268738 
	C208.513641,593.054504 208.880524,594.829407 209.219330,596.609070 
	C218.052811,568.680969 231.513962,543.807251 251.908386,522.833923 
	C272.042847,502.127960 295.619843,486.226471 320.831177,472.438873 
	C310.583893,484.593353 299.925568,496.253174 289.144592,507.798462 
	C273.934448,524.086975 260.508820,541.635315 251.998062,562.399597 
	C236.004944,601.419067 236.757309,640.675842 251.884201,679.685425 
	C256.157990,690.706787 262.075775,701.090576 267.239532,711.766785 
	C267.748993,711.550781 268.258484,711.334778 268.767975,711.118774 
	C266.533905,683.676636 268.722992,656.757690 277.802063,630.594604 
	C286.966919,604.184387 311.737640,565.208313 321.526581,562.588928 
	C321.189087,563.376953 320.950409,563.931885 320.713440,564.487671 
	C313.943024,580.366760 306.488464,595.995361 300.560455,612.182983 
	C291.315186,637.429260 288.360229,663.610840 292.496674,690.342224 
	C297.208862,720.794617 312.053497,745.975708 333.675873,767.341370 
	C342.969788,776.524963 352.988953,784.974670 362.927643,793.282471 
	C363.063873,793.301636 363.200104,793.320801 363.336334,793.339905 
	C363.321869,793.255249 363.307434,793.170593 363.293030,793.085999 
	C363.076508,793.304932 362.859985,793.523865 363.222961,793.061951 
	C363.106262,792.427368 363.110565,791.739014 362.855652,791.165894 
	C341.194946,742.466919 337.891937,693.073059 357.199646,642.815857 
	C358.803894,638.640137 360.950836,634.599609 361.979889,630.289490 
	C365.527618,615.430908 368.531128,600.442444 372.074341,585.582764 
	C373.650848,578.971130 376.020355,572.548584 378.420471,564.775391 
	C350.632721,585.826843 333.593170,612.532288 323.700562,644.191101 
	C323.453125,627.577271 325.945404,611.576599 331.429047,596.082397 
	C337.483032,578.976685 346.805206,563.722107 357.703064,549.317688 
	C359.021851,547.574524 360.108582,544.679688 359.618073,542.746033 
	C358.580780,538.656738 356.429565,534.850098 354.236176,529.772095 
	C342.310913,536.048279 330.758545,542.128174 318.772461,547.842346 
	C318.620880,547.729309 318.469269,547.616272 318.580933,546.863953 
	C325.636505,537.643616 332.692078,528.423279 340.434937,518.304810 
	C319.206268,527.514771 301.538635,539.968201 285.933350,555.825623 
	C286.475189,552.895630 287.525177,550.428406 288.816254,548.094604 
	C299.650726,528.509460 315.800323,513.921204 333.938110,501.527008 
	C342.121613,495.934937 347.030670,489.487427 349.060852,479.500824 
	C352.692413,461.636597 360.247070,458.052155 377.439667,463.755035 
	C379.269592,464.362030 382.373779,464.127533 383.623810,462.946533 
	C388.246246,458.579376 392.338684,453.651276 396.630341,448.934021 
	C396.354706,448.530579 396.079102,448.127136 395.803497,447.723694 
	C384.108521,452.710541 371.975006,453.996185 358.142761,452.690643 
	C366.119232,449.389557 373.184753,447.121460 379.584076,443.631683 
	C385.927673,440.172272 391.599976,435.481873 397.566681,431.331329 
	C397.289917,430.952911 397.013184,430.574493 396.736420,430.196075 
	C358.337433,434.665375 319.427002,436.654968 283.630890,453.949036 
	C314.702637,426.694641 352.139404,416.096039 391.985687,411.328186 
	C384.561432,408.800903 377.155792,406.469757 369.673065,404.419952 
	C349.716888,398.953217 329.367615,396.454865 308.650604,396.812012 
	C340.809906,385.167206 373.679810,385.486603 407.728882,391.850922 
	C400.044617,370.983521 387.825470,355.492859 371.257477,343.072357 
	C373.646057,343.299225 376.010773,343.521515 378.003632,344.500671 
	C391.853271,351.305603 405.742584,358.046478 419.383972,365.253113 
	C429.311981,370.498047 439.314758,375.314972 451.566559,378.165070 
	C447.970642,366.105438 444.691040,355.106628 441.216949,343.455597 
	C454.895782,354.534149 463.391357,368.983917 472.646851,382.874023 
	C469.845581,359.888367 457.472931,341.641357 444.067780,323.822906 
	C469.720337,335.714996 484.597992,357.388733 497.290558,381.546722 
	C497.214203,371.959106 497.123688,362.447693 495.378662,353.250183 
	C491.878906,334.803894 487.339661,316.557404 483.494659,298.173004 
	C481.140503,286.916931 478.842072,275.596039 480.002045,265.091003 
	C485.278046,278.060455 490.466614,292.020386 496.573456,305.566345 
	C507.930176,330.757355 519.128784,355.917023 520.380859,384.219696 
	C528.675049,360.634552 527.799927,336.384613 526.114563,311.962585 
	C536.664856,337.058228 540.655396,362.969360 536.244080,390.148163 
	C543.151245,382.873962 547.267578,374.262177 550.938354,365.366913 
	C557.203674,350.184448 562.731689,334.624969 570.080566,319.982269 
	C577.924072,304.354004 589.570740,291.489716 604.918579,282.714478 
M630.273254,524.311340 
	C629.843506,507.156586 629.373352,490.002655 629.004089,472.846619 
	C628.858398,466.078217 627.135803,460.111053 621.781128,455.489502 
	C619.523254,453.540710 617.639954,451.157837 615.586243,448.972412 
	C612.655640,445.853821 611.946289,442.438324 612.488586,438.023590 
	C613.576538,429.165588 615.120361,420.016174 613.998779,411.306030 
	C611.613708,392.782990 596.440125,383.376190 579.113098,389.565887 
	C561.771362,395.760681 544.557190,402.581329 527.995850,410.592865 
	C517.732666,415.557678 508.846008,417.241394 499.323975,410.209839 
	C498.023102,409.249176 496.343109,408.770233 494.796204,408.179352 
	C476.820160,401.312469 458.866241,394.385559 440.832733,387.672577 
	C436.284698,385.979614 431.553467,386.263031 427.463257,389.237122 
	C418.747589,395.574493 412.553925,403.661652 412.023926,414.809540 
	C411.749390,420.583405 411.563171,426.692566 413.109344,432.147919 
	C415.735626,441.414032 413.431305,448.345459 406.220215,454.159821 
	C405.319702,454.885895 404.635284,455.873535 403.778259,456.661041 
	C400.010315,460.123474 398.221252,464.503601 398.020325,469.511017 
	C397.319275,486.984589 396.693848,504.461243 396.047638,521.937012 
	C395.795105,528.766968 397.903107,534.778198 402.707825,539.649536 
	C409.372803,546.406921 415.885651,553.366150 423.047150,559.564941 
	C428.409363,564.206299 431.825195,569.546448 432.723969,576.418030 
	C433.996124,586.144409 434.978912,595.908569 436.085388,605.656616 
	C435.501923,605.795532 434.918457,605.934509 434.334991,606.073425 
	C427.817444,590.441467 421.621399,574.567383 404.993652,566.285034 
	C407.656586,583.236206 410.184296,600.007568 413.011749,616.728210 
	C413.552612,619.927002 414.608276,623.455688 416.569977,625.922974 
	C423.979675,635.242310 431.860657,644.186890 440.178436,653.994812 
	C442.643982,645.866272 445.318878,638.514526 447.053864,630.947205 
	C449.111633,621.972107 453.764404,616.062378 462.935455,613.829102 
	C466.460846,612.970581 469.832428,611.430481 473.219696,610.065918 
	C478.960968,607.753174 484.659027,605.333191 491.070862,602.669250 
	C487.552063,599.351135 484.619446,596.896729 482.071716,594.092651 
	C479.696533,591.478516 477.293549,588.217773 479.878632,584.753906 
	C482.538879,581.189453 486.081207,582.924866 489.335999,584.523560 
	C494.853577,587.233704 500.419037,589.846680 505.971619,592.485168 
	C511.115814,594.929688 516.269104,594.903320 521.350830,592.346741 
	C526.842407,589.583984 532.294250,586.741943 537.755981,583.919983 
	C540.752075,582.372009 543.976929,580.351013 546.740112,583.799561 
	C549.517761,587.266113 547.388672,590.368774 545.003235,593.145508 
	C544.138062,594.152466 543.201538,595.107300 542.225891,596.008423 
	C540.102478,597.969604 537.933105,599.880981 535.232300,602.306885 
	C546.247925,606.743225 556.318787,611.036560 566.569580,614.845886 
	C573.680725,617.488403 577.400818,622.286133 579.149780,629.578491 
	C581.061646,637.550476 583.906128,645.298828 586.536926,653.764954 
	C593.787720,645.259705 600.123718,637.351135 606.998901,629.943054 
	C611.064392,625.562378 613.252747,620.684998 614.109680,614.939819 
	C616.533203,598.690063 619.025635,582.450562 621.510010,566.080872 
	C605.108398,574.620972 598.248535,590.303162 591.159058,606.062134 
	C591.246338,597.741272 591.959778,589.667725 592.777588,581.604736 
	C593.720459,572.308228 597.151306,564.544067 604.841003,558.465576 
	C611.209595,553.431396 616.760437,547.325989 622.440735,541.469421 
	C626.786072,536.989258 630.322510,531.943970 630.273254,524.311340 
M567.837158,656.650269 
	C566.447937,651.691162 564.915710,646.766663 563.703979,641.764465 
	C562.001526,634.736511 557.589844,631.112549 550.751221,628.819580 
	C539.953491,625.199158 529.463074,620.630859 518.951294,616.205627 
	C515.135986,614.599426 511.761871,614.608032 507.957123,616.202637 
	C497.428314,620.615417 486.874542,625.005066 476.141632,628.880310 
	C470.053223,631.078552 465.656067,634.433411 463.738190,640.710144 
	C462.331635,645.313354 460.689667,649.857788 459.540100,654.523926 
	C455.015778,672.887756 452.098785,668.586487 468.898102,684.572205 
	C469.974365,685.596375 471.255676,686.417480 472.491943,687.259094 
	C483.681885,694.876404 490.719055,693.114380 497.141632,681.106750 
	C500.225494,675.341187 499.893036,673.445007 495.192261,669.115417 
	C494.272705,668.268433 493.553894,667.203491 492.695099,666.182739 
	C493.357239,665.381531 493.688629,664.760803 494.203644,664.407898 
	C495.014801,663.851990 495.906952,663.344177 496.838348,663.044495 
	C507.091827,659.745117 517.471619,660.299561 527.873169,662.164612 
	C528.835083,662.337036 529.769897,662.805237 530.649597,663.265564 
	C533.718872,664.872070 534.492249,666.720764 531.452148,669.284119 
	C530.117859,670.409058 528.542542,671.841064 528.157837,673.400452 
	C526.078186,681.829773 536.482788,693.439636 544.677429,690.938354 
	C550.597290,689.131409 555.877258,684.879456 561.105713,681.234741 
	C569.656006,675.274719 572.366699,667.322449 567.837158,656.650269 
M653.597473,544.057617 
	C661.487671,532.508789 664.998413,519.315796 666.870972,505.791443 
	C667.947815,498.014160 667.837708,489.906677 666.995300,482.084229 
	C666.370422,476.281250 662.264709,473.461914 658.071838,473.716614 
	C653.656250,473.984772 650.869080,477.047424 649.805481,482.864624 
	C649.566772,484.169678 649.374756,485.493805 649.301270,486.816925 
	C648.059937,509.165771 648.695312,531.677856 644.056030,554.267639 
	C647.087463,551.051819 650.118835,547.836060 653.597473,544.057617 
M371.618927,474.340942 
	C365.335510,473.139099 361.886444,474.762787 359.965363,480.516602 
	C358.930756,483.615356 358.298248,487.006195 358.296875,490.265625 
	C358.289703,507.320099 361.946899,523.624023 370.068970,538.641113 
	C373.142975,544.324646 377.639404,549.238831 381.487488,554.503662 
	C381.909973,554.216248 382.332428,553.928772 382.754913,553.641296 
	C381.796936,547.971680 380.375427,542.335022 379.969055,536.626099 
	C378.812378,520.376282 378.098114,504.095276 377.145905,487.830261 
	C376.864532,483.024200 376.719910,478.098663 371.618927,474.340942 
M967.826843,991.528564 
	C969.852173,992.367615 969.912048,992.389465 970.831543,989.869629 
	C974.223511,980.573547 980.442627,974.143982 989.839172,970.839905 
	C990.949951,970.449341 991.937927,969.709534 993.942749,968.600769 
	C980.864380,964.869934 973.111328,956.909790 969.001770,944.756775 
	C964.913696,957.069092 956.830444,964.865906 943.365051,969.025391 
	C955.950867,973.084717 964.007568,979.637024 967.826843,991.528564 
z"/>
<path fill="#FCFCFC" opacity="1.000000" stroke="none" 
	d="
M362.678619,793.757751 
	C352.988953,784.974670 342.969788,776.524963 333.675873,767.341370 
	C312.053497,745.975708 297.208862,720.794617 292.496674,690.342224 
	C288.360229,663.610840 291.315186,637.429260 300.560455,612.182983 
	C306.488464,595.995361 313.943024,580.366760 320.713440,564.487671 
	C320.950409,563.931885 321.189087,563.376953 321.526581,562.588928 
	C311.737640,565.208313 286.966919,604.184387 277.802063,630.594604 
	C268.722992,656.757690 266.533905,683.676636 268.767975,711.118774 
	C268.258484,711.334778 267.748993,711.550781 267.239532,711.766785 
	C262.075775,701.090576 256.157990,690.706787 251.884201,679.685425 
	C236.757309,640.675842 236.004944,601.419067 251.998062,562.399597 
	C260.508820,541.635315 273.934448,524.086975 289.144592,507.798462 
	C299.925568,496.253174 310.583893,484.593353 320.831177,472.438873 
	C295.619843,486.226471 272.042847,502.127960 251.908386,522.833923 
	C231.513962,543.807251 218.052811,568.680969 209.219330,596.609070 
	C208.880524,594.829407 208.513641,593.054504 208.210785,591.268738 
	C207.904495,589.462891 207.634720,587.649780 207.394897,585.833801 
	C202.279373,547.096497 204.689636,509.007904 218.015091,472.045349 
	C228.916840,441.805786 244.891281,414.794800 270.627502,394.628906 
	C292.004913,377.878387 315.781250,366.163757 343.311798,364.832428 
	C354.112305,364.310150 365.058197,366.670105 375.927704,367.813995 
	C377.849976,368.016266 379.722046,368.695068 381.617310,369.153809 
	C381.816132,368.747162 382.014923,368.340546 382.213745,367.933899 
	C377.553345,365.276245 373.040710,362.307465 368.208496,360.011475 
	C337.412048,345.379120 307.603180,349.880493 278.740234,365.505249 
	C255.531158,378.069305 236.627075,395.705658 220.926910,416.842957 
	C220.026398,418.055328 218.999680,419.173889 217.608734,420.027893 
	C224.490417,393.042084 234.420334,367.555328 251.349991,345.273468 
	C262.253357,330.923126 275.171356,318.732697 291.085968,310.101135 
	C328.847870,289.620331 364.235626,295.543732 397.345001,320.729828 
	C405.770935,327.139435 413.030701,335.082001 421.264709,342.795197 
	C421.918518,343.798645 422.133881,344.327087 422.349274,344.855530 
	C422.603546,344.773651 422.857819,344.691772 423.112061,344.609863 
	C422.854950,343.630219 422.597839,342.650543 422.340729,341.670868 
	C406.069427,304.469879 370.282104,271.127716 316.684998,278.706879 
	C308.973053,279.797424 301.305573,281.534821 293.793152,283.609131 
	C286.482513,285.627747 279.397552,288.463531 272.185272,290.950195 
	C294.634521,249.049698 375.242584,211.623672 416.882935,224.027557 
	C413.467560,259.858093 426.170013,289.960510 451.413940,315.464478 
	C450.719574,313.468201 450.188477,311.396393 449.305389,309.487396 
	C440.774017,291.044891 435.002563,271.888641 434.255951,251.441711 
	C432.842590,212.734558 454.455811,180.387314 492.931213,164.151810 
	C513.754028,155.365189 535.551208,151.279770 558.209778,152.232407 
	C559.133972,152.271255 560.056580,152.347702 562.598938,152.509949 
	C545.881958,161.343811 531.912354,171.302933 521.434326,185.371033 
	C511.008545,199.368942 504.745026,215.102448 503.360413,232.880386 
	C504.239227,231.474197 505.153717,230.088898 505.991730,228.658783 
	C528.007751,191.087402 571.431458,176.324661 608.369690,182.433075 
	C623.222595,184.889252 637.469910,189.237488 651.214539,195.309357 
	C652.613098,195.927216 653.922424,196.747040 655.355896,198.274048 
	C613.897766,202.343155 581.185120,220.145325 560.180786,256.639099 
	C549.493286,275.207947 544.592834,295.461578 544.525269,316.964508 
	C546.031738,312.308350 547.364990,307.587585 549.073730,303.006897 
	C557.974792,279.145416 571.207397,258.359802 591.990845,242.968094 
	C623.399963,219.707352 656.375977,220.012756 690.287292,236.621002 
	C716.054688,249.240692 736.787598,267.970306 754.147644,290.743256 
	C753.978882,291.035278 754.025085,290.976654 754.025085,290.976654 
	C744.614502,287.791565 735.370483,283.936584 725.761780,281.548553 
	C698.309509,274.725983 671.433594,275.697815 646.719727,291.071259 
	C627.002319,303.336517 613.034241,320.811737 604.326111,342.770935 
	C605.507507,341.684418 606.764832,340.669037 607.858582,339.500549 
	C620.851440,325.619293 635.581970,313.976196 653.006042,306.250092 
	C687.561096,290.927795 719.615173,296.711060 749.145447,319.066772 
	C771.941895,336.324677 787.143005,359.381683 797.704712,385.606750 
	C801.733337,395.610077 804.866882,405.975128 808.355225,416.193420 
	C808.817566,417.547852 808.964905,419.009857 809.299927,420.623444 
	C801.725647,412.019073 794.730286,403.354095 786.987915,395.418030 
	C767.470825,375.412811 744.935730,360.130249 717.320984,353.596313 
	C691.305542,347.440765 667.375854,352.627930 644.007446,368.094177 
	C647.010437,367.935516 648.644775,368.113647 650.135742,367.731720 
	C686.013000,358.541504 717.858337,368.449066 747.483398,388.416443 
	C780.403687,410.604797 799.021973,442.929626 810.895142,479.689575 
	C822.640503,516.053955 823.563293,553.303772 818.507141,590.885864 
	C818.276672,592.599426 817.576050,594.249756 816.700684,597.302734 
	C811.805115,579.814453 805.315918,564.570129 796.399902,550.486633 
	C780.895081,525.995667 759.746216,507.044281 736.146118,490.713379 
	C726.991272,484.378326 717.273193,478.857239 707.343323,472.651276 
	C706.404602,472.302643 705.934326,472.268066 705.463989,472.233490 
	C705.736084,472.693878 706.008240,473.154236 706.280334,473.614624 
	C715.388306,483.773926 724.332825,494.085754 733.640503,504.058716 
	C749.732727,521.301331 764.754333,539.335266 773.952209,561.315063 
	C790.968567,601.978333 789.649475,642.773682 773.289062,683.258606 
	C769.392212,692.901367 764.102905,701.981384 759.454163,711.320251 
	C758.921204,711.195862 758.388245,711.071411 757.855347,710.947021 
	C757.929138,709.293213 757.969727,707.637146 758.081665,705.985901 
	C761.260254,659.128418 749.253296,616.660217 721.215088,578.874817 
	C713.244324,568.133118 712.825989,567.910583 707.389221,565.837219 
	C708.210388,568.169983 708.625549,569.933228 709.416077,571.507935 
	C721.957520,596.487000 731.473633,622.493225 734.763977,650.377197 
	C739.637268,691.675049 728.619019,728.321594 700.438477,759.100159 
	C690.247437,770.230774 678.549561,779.983826 667.500366,790.323853 
	C666.325623,791.423157 664.888733,792.242371 663.419556,793.302612 
	C667.232605,782.767883 671.540405,772.717651 674.528076,762.289185 
	C686.997681,718.763794 684.343994,676.180420 666.265137,634.473694 
	C663.426636,627.925537 663.506348,620.169312 661.653076,613.125183 
	C657.846985,598.658630 653.638855,584.297974 649.619080,569.887329 
	C649.266052,568.621948 649.081970,567.309570 649.076050,565.690979 
	C649.332642,565.362976 649.351624,565.272888 649.351624,565.272888 
	C658.340637,574.285034 667.826904,582.861267 676.200134,592.413208 
	C688.204895,606.108032 695.140259,622.738464 701.103943,639.754089 
	C701.514221,640.924866 701.938660,642.090698 702.708984,643.151550 
	C703.241516,627.352112 700.422058,612.181763 695.350891,597.310669 
	C689.486877,580.114563 680.461548,564.677856 669.541077,550.332703 
	C666.413269,546.223938 665.941223,542.917847 668.273438,538.278137 
	C672.224854,530.417053 672.082031,529.950745 680.149231,533.931946 
	C689.215088,538.405945 697.961853,543.526550 707.397339,548.680420 
	C708.191772,548.955566 708.436218,548.916199 708.680725,548.876770 
	C708.468994,548.570496 708.257263,548.264221 708.045532,547.957947 
	C700.846558,538.701782 693.647644,529.445618 686.546631,519.712891 
	C686.820435,519.095581 686.996338,518.954834 687.172241,518.814148 
	C707.334229,527.680908 724.867249,540.315369 740.050842,556.316895 
	C740.427368,556.091187 740.803833,555.865417 741.180359,555.639648 
	C740.586304,554.159851 740.118103,552.613770 739.378845,551.210510 
	C731.024597,535.351990 719.544189,522.111938 705.451294,511.119751 
	C698.627869,505.797577 691.402039,500.957428 684.884277,495.293854 
	C682.249817,493.004547 680.557129,489.275665 679.263245,485.886078 
	C677.499817,481.266479 677.007507,476.145569 675.117004,471.593903 
	C671.156982,462.059021 663.820862,457.965210 654.719910,462.309021 
	C645.302368,466.803955 640.627563,462.414124 635.679016,456.141968 
	C633.720642,453.659698 631.820923,451.131073 629.569153,448.414398 
	C629.243774,448.205261 629.176208,448.247528 629.176208,448.247528 
	C630.600159,448.391083 632.165466,448.199310 633.425842,448.730743 
	C644.418030,453.365570 655.900208,453.513428 667.781250,452.332794 
	C654.078918,447.431763 640.574829,442.298492 629.944092,431.548462 
	C648.870178,428.164764 714.831238,441.792786 742.761230,454.715668 
	C738.507080,439.354065 677.195984,415.076996 634.435608,411.500092 
	C661.463013,402.130096 689.024353,395.755310 718.418579,397.290131 
	C711.824036,392.899658 685.196594,386.880646 669.437683,387.283447 
	C652.852539,387.707367 636.301453,389.462463 619.787354,390.632233 
	C621.158630,380.686218 631.827332,365.849670 653.751221,343.609528 
	C647.944275,343.318390 635.468689,348.679138 618.231873,358.608337 
	C606.887146,365.143494 595.412903,371.453796 583.337769,378.234833 
	C585.794495,368.945160 587.938293,360.838837 590.082092,352.732513 
	C589.442444,352.449066 588.802734,352.165649 588.163086,351.882202 
	C581.203430,360.463409 574.243774,369.044617 567.284119,377.625824 
	C573.299072,343.410645 581.707825,310.576538 605.446350,283.539490 
	C605.930481,282.804657 606.054626,282.489685 606.450012,282.078979 
	C606.318298,281.762817 605.915344,281.542389 605.306702,281.358643 
	C604.865540,281.561707 604.698547,281.780334 604.599915,282.051178 
	C589.570740,291.489716 577.924072,304.354004 570.080566,319.982269 
	C562.731689,334.624969 557.203674,350.184448 550.938354,365.366913 
	C547.267578,374.262177 543.151245,382.873962 536.244080,390.148163 
	C540.655396,362.969360 536.664856,337.058228 526.114563,311.962585 
	C527.799927,336.384613 528.675049,360.634552 520.380859,384.219696 
	C519.128784,355.917023 507.930176,330.757355 496.573456,305.566345 
	C490.466614,292.020386 485.278046,278.060455 480.002045,265.091003 
	C478.842072,275.596039 481.140503,286.916931 483.494659,298.173004 
	C487.339661,316.557404 491.878906,334.803894 495.378662,353.250183 
	C497.123688,362.447693 497.214203,371.959106 497.290558,381.546722 
	C484.597992,357.388733 469.720337,335.714996 444.067780,323.822906 
	C457.472931,341.641357 469.845581,359.888367 472.646851,382.874023 
	C463.391357,368.983917 454.895782,354.534149 441.216949,343.455597 
	C444.691040,355.106628 447.970642,366.105438 451.566559,378.165070 
	C439.314758,375.314972 429.311981,370.498047 419.383972,365.253113 
	C405.742584,358.046478 391.853271,351.305603 378.003632,344.500671 
	C376.010773,343.521515 373.646057,343.299225 371.257477,343.072357 
	C387.825470,355.492859 400.044617,370.983521 407.728882,391.850922 
	C373.679810,385.486603 340.809906,385.167206 308.650604,396.812012 
	C329.367615,396.454865 349.716888,398.953217 369.673065,404.419952 
	C377.155792,406.469757 384.561432,408.800903 391.985687,411.328186 
	C352.139404,416.096039 314.702637,426.694641 283.630890,453.949036 
	C319.427002,436.654968 358.337433,434.665375 396.736420,430.196075 
	C397.013184,430.574493 397.289917,430.952911 397.566681,431.331329 
	C391.599976,435.481873 385.927673,440.172272 379.584076,443.631683 
	C373.184753,447.121460 366.119232,449.389557 358.142761,452.690643 
	C371.975006,453.996185 384.108521,452.710541 395.803497,447.723694 
	C396.079102,448.127136 396.354706,448.530579 396.630341,448.934021 
	C392.338684,453.651276 388.246246,458.579376 383.623810,462.946533 
	C382.373779,464.127533 379.269592,464.362030 377.439667,463.755035 
	C360.247070,458.052155 352.692413,461.636597 349.060852,479.500824 
	C347.030670,489.487427 342.121613,495.934937 333.938110,501.527008 
	C315.800323,513.921204 299.650726,528.509460 288.816254,548.094604 
	C287.525177,550.428406 286.475189,552.895630 285.933350,555.825623 
	C301.538635,539.968201 319.206268,527.514771 340.434937,518.304810 
	C332.692078,528.423279 325.636505,537.643616 318.259094,547.441345 
	C318.060425,548.335510 318.183563,548.652344 318.306763,548.969116 
	C318.606567,548.715454 318.906372,548.461792 319.206177,548.208130 
	C330.758545,542.128174 342.310913,536.048279 354.236176,529.772095 
	C356.429565,534.850098 358.580780,538.656738 359.618073,542.746033 
	C360.108582,544.679688 359.021851,547.574524 357.703064,549.317688 
	C346.805206,563.722107 337.483032,578.976685 331.429047,596.082397 
	C325.945404,611.576599 323.453125,627.577271 323.700562,644.191101 
	C333.593170,612.532288 350.632721,585.826843 378.420471,564.775391 
	C376.020355,572.548584 373.650848,578.971130 372.074341,585.582764 
	C368.531128,600.442444 365.527618,615.430908 361.979889,630.289490 
	C360.950836,634.599609 358.803894,638.640137 357.199646,642.815857 
	C337.891937,693.073059 341.194946,742.466919 362.855652,791.165894 
	C363.110565,791.739014 363.106262,792.427368 362.957947,793.362549 
	C362.692963,793.663208 362.678619,793.757751 362.678619,793.757751 
M281.218842,454.424835 
	C281.790466,454.408905 282.362122,454.392975 282.933746,454.377045 
	C282.559723,454.249359 282.185669,454.121643 281.218842,454.424835 
M286.115112,556.246948 
	C285.654297,556.136414 285.196808,555.993286 284.729584,555.945557 
	C284.645782,555.937012 284.521729,556.322998 284.416260,556.526794 
	C284.806946,556.641357 285.197632,556.755981 286.115112,556.246948 
M602.855042,342.852509 
	C602.776672,343.149445 602.698242,343.446381 602.619873,343.743317 
	C603.005981,343.708893 603.392029,343.674469 603.778137,343.640045 
	C603.724854,343.287140 603.671570,342.934265 602.855042,342.852509 
M321.483276,561.070862 
	C321.398590,561.300781 321.313934,561.530640 321.229279,561.760498 
	C321.465698,561.689575 321.702118,561.618652 321.483276,561.070862 
M543.387268,318.457520 
	C543.387268,318.457520 543.617188,318.626984 543.617188,318.626984 
	C543.617188,318.626984 543.601501,318.243286 543.387268,318.457520 
z"/>
<path fill="#FDFDFD" opacity="1.000000" stroke="none" 
	d="
M630.253418,524.780579 
	C630.322510,531.943970 626.786072,536.989258 622.440735,541.469421 
	C616.760437,547.325989 611.209595,553.431396 604.841003,558.465576 
	C597.151306,564.544067 593.720459,572.308228 592.777588,581.604736 
	C591.959778,589.667725 591.246338,597.741272 591.159058,606.062134 
	C598.248535,590.303162 605.108398,574.620972 621.510010,566.080872 
	C619.025635,582.450562 616.533203,598.690063 614.109680,614.939819 
	C613.252747,620.684998 611.064392,625.562378 606.998901,629.943054 
	C600.123718,637.351135 593.787720,645.259705 586.536926,653.764954 
	C583.906128,645.298828 581.061646,637.550476 579.149780,629.578491 
	C577.400818,622.286133 573.680725,617.488403 566.569580,614.845886 
	C556.318787,611.036560 546.247925,606.743225 535.232300,602.306885 
	C537.933105,599.880981 540.102478,597.969604 542.225891,596.008423 
	C543.201538,595.107300 544.138062,594.152466 545.003235,593.145508 
	C547.388672,590.368774 549.517761,587.266113 546.740112,583.799561 
	C543.976929,580.351013 540.752075,582.372009 537.755981,583.919983 
	C532.294250,586.741943 526.842407,589.583984 521.350830,592.346741 
	C516.269104,594.903320 511.115814,594.929688 505.971619,592.485168 
	C500.419037,589.846680 494.853577,587.233704 489.335999,584.523560 
	C486.081207,582.924866 482.538879,581.189453 479.878632,584.753906 
	C477.293549,588.217773 479.696533,591.478516 482.071716,594.092651 
	C484.619446,596.896729 487.552063,599.351135 491.070862,602.669250 
	C484.659027,605.333191 478.960968,607.753174 473.219696,610.065918 
	C469.832428,611.430481 466.460846,612.970581 462.935455,613.829102 
	C453.764404,616.062378 449.111633,621.972107 447.053864,630.947205 
	C445.318878,638.514526 442.643982,645.866272 440.178436,653.994812 
	C431.860657,644.186890 423.979675,635.242310 416.569977,625.922974 
	C414.608276,623.455688 413.552612,619.927002 413.011749,616.728210 
	C410.184296,600.007568 407.656586,583.236206 404.993652,566.285034 
	C421.621399,574.567383 427.817444,590.441467 434.334991,606.073425 
	C434.918457,605.934509 435.501923,605.795532 436.085388,605.656616 
	C434.978912,595.908569 433.996124,586.144409 432.723969,576.418030 
	C431.825195,569.546448 428.409363,564.206299 423.047150,559.564941 
	C415.885651,553.366150 409.372803,546.406921 402.707825,539.649536 
	C397.903107,534.778198 395.795105,528.766968 396.047638,521.937012 
	C396.693848,504.461243 397.319275,486.984589 398.020325,469.511017 
	C398.221252,464.503601 400.010315,460.123474 403.778259,456.661041 
	C404.635284,455.873535 405.319702,454.885895 406.220215,454.159821 
	C413.431305,448.345459 415.735626,441.414032 413.109344,432.147919 
	C411.563171,426.692566 411.749390,420.583405 412.023926,414.809540 
	C412.553925,403.661652 418.747589,395.574493 427.463257,389.237122 
	C431.553467,386.263031 436.284698,385.979614 440.832733,387.672577 
	C458.866241,394.385559 476.820160,401.312469 494.796204,408.179352 
	C496.343109,408.770233 498.023102,409.249176 499.323975,410.209839 
	C508.846008,417.241394 517.732666,415.557678 527.995850,410.592865 
	C544.557190,402.581329 561.771362,395.760681 579.113098,389.565887 
	C596.440125,383.376190 611.613708,392.782990 613.998779,411.306030 
	C615.120361,420.016174 613.576538,429.165588 612.488586,438.023590 
	C611.946289,442.438324 612.655640,445.853821 615.586243,448.972412 
	C617.639954,451.157837 619.523254,453.540710 621.781128,455.489502 
	C627.135803,460.111053 628.858398,466.078217 629.004089,472.846619 
	C629.373352,490.002655 629.843506,507.156586 630.253418,524.780579 
M530.983154,562.296021 
	C532.978088,550.102539 534.973083,537.908997 537.065491,525.120056 
	C546.366943,529.848450 554.913635,534.193176 563.460388,538.537903 
	C563.790405,538.038635 564.120422,537.539368 564.450439,537.040100 
	C558.273682,530.814636 552.096924,524.589172 545.035828,517.472351 
	C553.952209,517.927551 561.417969,518.543945 568.890381,518.639343 
	C582.794434,518.816956 595.732544,510.226685 599.715820,498.387634 
	C596.075806,498.045624 592.470093,497.748962 588.874756,497.356903 
	C585.404968,496.978577 581.945862,496.501801 577.634399,495.962158 
	C589.748169,485.665161 604.823853,486.398804 618.462769,480.808014 
	C610.681580,476.435944 603.526123,472.621674 596.596313,468.434052 
	C593.176880,466.367767 590.288391,466.484009 586.831543,468.278839 
	C574.011047,474.935120 561.136169,481.493683 548.163208,487.846832 
	C540.293091,491.700989 532.580627,497.599365 522.876282,490.607300 
	C521.558838,517.366028 524.670532,542.799072 526.121460,568.325317 
	C526.770020,568.408752 527.418518,568.492126 528.067078,568.575562 
	C528.995483,566.753784 529.923889,564.932007 530.983154,562.296021 
M466.876434,518.214600 
	C473.569794,518.803650 480.255585,519.557251 486.961853,519.866821 
	C488.651611,519.944885 490.967010,519.083191 492.040375,517.833496 
	C498.470337,510.347382 500.686096,500.996613 503.291962,491.109406 
	C493.789185,497.398438 486.408722,491.567017 478.830200,487.806091 
	C466.037445,481.457611 453.408508,474.778656 440.608704,468.444824 
	C438.542236,467.422272 435.412170,466.365112 433.689026,467.203949 
	C425.433411,471.222961 417.492645,475.888641 408.230804,480.990631 
	C422.783051,485.760254 437.270203,486.706268 449.560547,496.401855 
	C440.940155,497.148926 433.278687,497.812897 425.453217,498.491089 
	C433.750885,513.422546 447.143280,519.864197 466.876434,518.214600 
z"/>
<path fill="#FAFAFA" opacity="1.000000" stroke="none" 
	d="
M448.242676,839.863586 
	C447.164948,839.597656 445.908569,839.602783 445.035248,839.026917 
	C404.890808,812.556641 377.201477,777.140991 366.705841,729.481018 
	C360.582397,701.674988 361.219116,673.779053 367.699524,646.248535 
	C370.954620,632.420166 376.482117,619.112976 381.201172,605.646973 
	C385.209320,594.209595 389.532043,582.882446 393.990112,570.759888 
	C395.495270,577.923157 396.916016,584.394104 394.748383,591.298279 
	C390.520935,604.763123 386.413116,618.272156 382.636688,631.868713 
	C381.120026,637.329224 380.607117,643.068542 379.637390,648.680969 
	C380.169617,648.889404 380.701813,649.097839 381.234039,649.306213 
	C387.616119,638.167236 393.998230,627.028198 400.380341,615.889221 
	C400.834503,616.070007 401.288635,616.250793 401.742798,616.431580 
	C401.882629,616.989258 401.936951,617.586731 402.174896,618.098816 
	C406.685760,627.809021 404.282013,636.243225 399.661072,645.692383 
	C385.237152,675.186829 381.884125,706.072021 391.939026,737.838318 
	C392.523254,739.683960 393.389343,741.440430 394.689880,743.246643 
	C389.852448,706.999207 400.906067,674.973999 420.133850,644.314270 
	C422.717041,650.616394 424.570526,656.241028 421.242371,662.531799 
	C414.962738,674.401489 412.210144,687.115967 412.823944,701.001282 
	C418.120148,691.314392 423.226501,681.974731 428.332886,672.635010 
	C428.891296,672.803772 429.449707,672.972473 430.008087,673.141235 
	C424.437622,693.511475 427.476959,712.973633 435.713715,732.017944 
	C435.541260,712.088867 435.283569,692.207581 449.529572,675.125427 
	C453.087677,684.981628 458.653870,692.335999 468.101379,696.593445 
	C442.492065,729.521118 442.644989,763.422302 462.672760,798.080994 
	C463.192657,798.093689 463.712555,798.106384 464.232452,798.119080 
	C463.691742,790.117798 463.151062,782.116516 462.610352,774.115234 
	C474.375458,796.644470 492.862549,815.293457 498.860840,840.742737 
	C501.124664,831.745239 498.904907,816.059753 493.525055,805.479004 
	C488.779694,796.146118 483.252380,787.213562 478.183044,778.041992 
	C469.144012,761.688171 465.139404,744.466431 471.100922,726.207397 
	C473.372742,719.249146 477.288025,712.827515 481.209412,706.366760 
	C479.122925,726.977295 483.153625,745.917053 494.196991,763.418091 
	C493.795319,760.064636 493.411438,756.708862 492.988953,753.358032 
	C491.191498,739.102478 493.345215,725.519043 499.681732,712.579224 
	C503.751312,704.268860 507.623169,695.861572 511.598114,687.467041 
	C521.097473,705.670044 526.833679,724.668091 524.116821,745.608215 
	C531.491272,731.238770 533.638611,716.096497 531.353455,700.103577 
	C537.580078,707.964294 540.226624,717.037537 541.070129,726.680786 
	C542.494263,742.960693 536.678894,757.427673 529.273071,771.388184 
	C520.930725,787.114136 517.215576,803.722961 519.120117,821.493958 
	C519.362732,821.427246 519.867004,821.403809 519.902588,821.262512 
	C524.117188,804.514221 533.945312,790.483215 542.051758,775.634277 
	C550.218018,760.675842 555.677917,744.982788 555.670166,727.143616 
	C567.175415,743.872437 559.858276,786.515991 541.638428,815.001038 
	C552.455811,807.165588 559.869873,796.392273 565.618530,784.603271 
	C576.780273,761.713257 578.225037,729.775330 569.554504,715.502380 
	C568.048462,721.160156 566.489563,727.016541 564.946472,732.813660 
	C561.453369,721.429199 558.035767,710.290527 554.476807,698.691345 
	C564.568420,694.484680 572.105408,686.120850 577.137939,675.299683 
	C581.673706,679.448425 587.596619,691.926025 589.000183,702.530945 
	C590.324402,712.536377 590.597290,722.680969 591.293884,732.233337 
	C598.535400,725.079163 601.516479,692.044800 597.014038,671.842529 
	C598.892517,674.661987 600.867981,677.422607 602.623169,680.316772 
	C604.517456,683.440247 606.315369,686.633667 607.952759,689.898193 
	C609.550598,693.084106 610.892639,696.398315 612.448364,699.883240 
	C614.361511,688.375366 612.617737,677.591187 606.017761,663.841919 
	C602.968567,657.489563 602.715881,651.499573 605.889954,645.260620 
	C623.265869,661.960693 637.253784,715.022400 632.137329,742.165833 
	C632.914490,740.700317 633.897278,739.306641 634.437744,737.758484 
	C641.976501,716.163757 641.977783,694.201111 636.384888,672.331177 
	C633.765869,662.090393 630.656189,651.554810 625.413147,642.519897 
	C619.813477,632.870422 621.829529,624.276855 625.303467,614.432434 
	C632.042969,626.107849 638.782532,637.783264 645.522034,649.458679 
	C645.844788,649.454346 646.167542,649.450073 646.490356,649.445801 
	C645.820862,644.043030 645.763611,638.475464 644.362122,633.269714 
	C640.778931,619.960388 636.995728,606.674500 632.499207,593.653259 
	C629.964966,586.314697 630.052307,579.429504 632.305298,571.709900 
	C633.003723,572.718201 633.644287,573.340637 633.928101,574.096985 
	C641.107849,593.230835 648.930054,612.161438 655.145630,631.605286 
	C658.910339,643.382446 660.918396,655.867737 662.422180,668.192749 
	C666.450439,701.208557 662.997375,733.375427 648.705627,763.796814 
	C633.858521,795.400391 610.792725,819.815186 581.834290,838.920227 
	C581.282471,839.284302 580.696899,839.630371 580.079163,839.850403 
	C579.637390,840.007812 579.115417,839.940002 578.018433,840.013794 
	C600.213135,803.948242 611.358887,765.559570 605.542542,723.105896 
	C592.858154,784.969055 563.853699,836.963501 513.321899,876.983704 
	C462.919434,837.727783 434.270081,785.674500 421.630402,723.073730 
	C412.115204,743.305176 425.851776,802.203552 448.051147,839.577759 
	C448.159637,839.899902 448.242676,839.863586 448.242676,839.863586 
z"/>
<path fill="#FAFAFA" opacity="1.000000" stroke="none" 
	d="
M567.915527,657.059143 
	C572.366699,667.322449 569.656006,675.274719 561.105713,681.234741 
	C555.877258,684.879456 550.597290,689.131409 544.677429,690.938354 
	C536.482788,693.439636 526.078186,681.829773 528.157837,673.400452 
	C528.542542,671.841064 530.117859,670.409058 531.452148,669.284119 
	C534.492249,666.720764 533.718872,664.872070 530.649597,663.265564 
	C529.769897,662.805237 528.835083,662.337036 527.873169,662.164612 
	C517.471619,660.299561 507.091827,659.745117 496.838348,663.044495 
	C495.906952,663.344177 495.014801,663.851990 494.203644,664.407898 
	C493.688629,664.760803 493.357239,665.381531 492.695099,666.182739 
	C493.553894,667.203491 494.272705,668.268433 495.192261,669.115417 
	C499.893036,673.445007 500.225494,675.341187 497.141632,681.106750 
	C490.719055,693.114380 483.681885,694.876404 472.491943,687.259094 
	C471.255676,686.417480 469.974365,685.596375 468.898102,684.572205 
	C452.098785,668.586487 455.015778,672.887756 459.540100,654.523926 
	C460.689667,649.857788 462.331635,645.313354 463.738190,640.710144 
	C465.656067,634.433411 470.053223,631.078552 476.141632,628.880310 
	C486.874542,625.005066 497.428314,620.615417 507.957123,616.202637 
	C511.761871,614.608032 515.135986,614.599426 518.951294,616.205627 
	C529.463074,620.630859 539.953491,625.199158 550.751221,628.819580 
	C557.589844,631.112549 562.001526,634.736511 563.703979,641.764465 
	C564.915710,646.766663 566.447937,651.691162 567.915527,657.059143 
M536.659607,635.851379 
	C532.422607,634.373657 528.111389,631.502258 523.964783,631.722900 
	C516.490051,632.120605 508.886108,631.313477 501.708191,632.152039 
	C493.757874,633.080750 486.200867,637.695374 478.589203,640.975464 
	C476.723907,641.779358 475.312744,643.637024 473.692810,645.010254 
	C473.923645,645.548767 474.154449,646.087341 474.385284,646.625916 
	C499.919434,643.500305 525.444580,642.276123 551.226501,646.277588 
	C548.365112,640.143066 542.631042,638.443237 536.659607,635.851379 
z"/>
<path fill="#F9F9F9" opacity="1.000000" stroke="none" 
	d="
M653.373901,544.338928 
	C650.118835,547.836060 647.087463,551.051819 644.056030,554.267639 
	C648.695312,531.677856 648.059937,509.165771 649.301270,486.816925 
	C649.374756,485.493805 649.566772,484.169678 649.805481,482.864624 
	C650.869080,477.047424 653.656250,473.984772 658.071838,473.716614 
	C662.264709,473.461914 666.370422,476.281250 666.995300,482.084229 
	C667.837708,489.906677 667.947815,498.014160 666.870972,505.791443 
	C664.998413,519.315796 661.487671,532.508789 653.373901,544.338928 
z"/>
<path fill="#F8F8F8" opacity="1.000000" stroke="none" 
	d="
M371.935364,474.589966 
	C376.719910,478.098663 376.864532,483.024200 377.145905,487.830261 
	C378.098114,504.095276 378.812378,520.376282 379.969055,536.626099 
	C380.375427,542.335022 381.796936,547.971680 382.754913,553.641296 
	C382.332428,553.928772 381.909973,554.216248 381.487488,554.503662 
	C377.639404,549.238831 373.142975,544.324646 370.068970,538.641113 
	C361.946899,523.624023 358.289703,507.320099 358.296875,490.265625 
	C358.298248,487.006195 358.930756,483.615356 359.965363,480.516602 
	C361.886444,474.762787 365.335510,473.139099 371.935364,474.589966 
z"/>
<path fill="#7D7D7D" opacity="1.000000" stroke="none" 
	d="
M967.677795,991.192200 
	C964.007568,979.637024 955.950867,973.084717 943.365051,969.025391 
	C956.830444,964.865906 964.913696,957.069092 969.001770,944.756775 
	C973.111328,956.909790 980.864380,964.869934 993.942749,968.600769 
	C991.937927,969.709534 990.949951,970.449341 989.839172,970.839905 
	C980.442627,974.143982 974.223511,980.573547 970.831543,989.869629 
	C969.912048,992.389465 969.852173,992.367615 967.677795,991.192200 
z"/>
<path fill="#FCFCFC" opacity="1.000000" stroke="none" 
	d="
M686.362854,519.422974 
	C685.437683,519.270447 684.794189,518.931213 683.097229,518.036743 
	C685.152588,518.149902 685.991821,518.196106 687.001709,518.528198 
	C686.996338,518.954834 686.820435,519.095581 686.362854,519.422974 
z"/>
<path fill="#FCFCFC" opacity="1.000000" stroke="none" 
	d="
M753.962769,291.068909 
	C754.277344,291.106812 754.609009,291.100006 754.937195,291.130798 
	C754.973999,291.134216 754.990845,291.350861 755.016907,291.468628 
	C754.660400,291.474731 754.303833,291.480865 753.986206,291.231812 
	C754.025085,290.976654 753.978882,291.035278 753.962769,291.068909 
z"/>
<path fill="#FCFCFC" opacity="1.000000" stroke="none" 
	d="
M649.358337,565.326050 
	C649.152710,565.480774 648.921387,565.672485 648.690063,565.864136 
	C648.687439,565.780212 648.684875,565.696289 648.682251,565.612366 
	C648.812012,565.647034 648.941711,565.681702 649.211548,565.494629 
	C649.351624,565.272888 649.332642,565.362976 649.358337,565.326050 
z"/>
<path fill="#FCFCFC" opacity="1.000000" stroke="none" 
	d="
M629.256287,448.241272 
	C629.526428,448.024261 629.783997,447.771210 630.041565,447.518158 
	C629.995422,447.765350 629.949280,448.012573 629.539673,448.253662 
	C629.176208,448.247528 629.243774,448.205261 629.256287,448.241272 
z"/>
<path fill="#FCFCFC" opacity="1.000000" stroke="none" 
	d="
M362.668213,793.703003 
	C362.859985,793.523865 363.076508,793.304932 363.293030,793.085938 
	C363.307434,793.170593 363.321869,793.255249 363.336334,793.339905 
	C363.200104,793.320801 363.063873,793.301636 362.803131,793.520142 
	C362.678619,793.757751 362.692963,793.663208 362.668213,793.703003 
z"/>
<path fill="#FAFAFA" opacity="1.000000" stroke="none" 
	d="
M448.120941,839.923523 
	C448.250336,840.161255 448.418427,840.375366 448.586548,840.589478 
	C448.303650,840.475464 448.020721,840.361389 447.990234,840.055481 
	C448.242676,839.863586 448.159637,839.899902 448.120941,839.923523 
z"/>
<path fill="#010101" opacity="1.000000" stroke="none" 
	d="
M422.093445,341.926453 
	C422.597839,342.650543 422.854950,343.630219 423.112061,344.609863 
	C422.857819,344.691772 422.603546,344.773651 422.349274,344.855530 
	C422.133881,344.327087 421.918518,343.798645 421.535461,342.989227 
	C421.527222,342.532837 421.686707,342.357422 422.093445,341.926453 
z"/>
<path fill="#010101" opacity="1.000000" stroke="none" 
	d="
M706.495117,473.435394 
	C706.008240,473.154236 705.736084,472.693878 705.463989,472.233490 
	C705.934326,472.268066 706.404602,472.302643 706.995483,472.604248 
	C706.980591,472.999603 706.845215,473.127899 706.495117,473.435394 
z"/>
<path fill="#010101" opacity="1.000000" stroke="none" 
	d="
M281.515259,454.209412 
	C282.185669,454.121643 282.559723,454.249359 282.933746,454.377075 
	C282.362122,454.392975 281.790466,454.408905 281.515259,454.209412 
z"/>
<path fill="#010101" opacity="1.000000" stroke="none" 
	d="
M285.851715,556.558716 
	C285.197632,556.755981 284.806946,556.641357 284.416260,556.526794 
	C284.521729,556.322998 284.645782,555.937012 284.729584,555.945557 
	C285.196808,555.993286 285.654297,556.136414 285.851715,556.558716 
z"/>
<path fill="#010101" opacity="1.000000" stroke="none" 
	d="
M603.236694,342.716919 
	C603.671570,342.934265 603.724854,343.287140 603.778137,343.640045 
	C603.392029,343.674469 603.005981,343.708893 602.619873,343.743317 
	C602.698242,343.446381 602.776672,343.149445 603.236694,342.716919 
z"/>
<path fill="#010101" opacity="1.000000" stroke="none" 
	d="
M318.989319,548.025269 
	C318.906372,548.461792 318.606567,548.715454 318.306763,548.969116 
	C318.183563,548.652344 318.060425,548.335510 318.127472,547.760986 
	C318.469269,547.616272 318.620880,547.729309 318.989319,548.025269 
z"/>
<path fill="#010101" opacity="1.000000" stroke="none" 
	d="
M707.895874,548.126709 
	C708.257263,548.264221 708.468994,548.570496 708.680725,548.876770 
	C708.436218,548.916199 708.191772,548.955566 707.711609,548.825806 
	C707.475952,548.656677 707.746155,548.295410 707.895874,548.126709 
z"/>
<path fill="#010101" opacity="1.000000" stroke="none" 
	d="
M321.710938,561.309265 
	C321.702118,561.618652 321.465698,561.689575 321.229279,561.760498 
	C321.313934,561.530640 321.398590,561.300781 321.710938,561.309265 
z"/>
<path fill="#010101" opacity="1.000000" stroke="none" 
	d="
M543.494385,318.350403 
	C543.601501,318.243286 543.617188,318.626984 543.617188,318.626984 
	C543.617188,318.626984 543.387268,318.457520 543.494385,318.350403 
z"/>
<path fill="#010101" opacity="1.000000" stroke="none" 
	d="
M606.178833,282.174713 
	C606.054626,282.489685 605.930481,282.804657 605.565796,283.223633 
	C605.189758,283.123260 605.054138,282.918854 604.759277,282.382812 
	C604.698547,281.780334 604.865540,281.561707 605.458862,281.583130 
	C605.937439,281.905518 606.058167,282.040131 606.178833,282.174713 
z"/>
<path fill="#010101" opacity="1.000000" stroke="none" 
	d="
M605.664612,281.546417 
	C605.915344,281.542389 606.318298,281.762817 606.450012,282.078979 
	C606.058167,282.040131 605.937439,281.905518 605.664612,281.546417 
z"/>
<path fill="#060606" opacity="1.000000" stroke="none" 
	d="
M530.917725,562.703125 
	C529.923889,564.932007 528.995483,566.753784 528.067078,568.575562 
	C527.418518,568.492126 526.770020,568.408752 526.121460,568.325317 
	C524.670532,542.799072 521.558838,517.366028 522.876282,490.607300 
	C532.580627,497.599365 540.293091,491.700989 548.163208,487.846832 
	C561.136169,481.493683 574.011047,474.935120 586.831543,468.278839 
	C590.288391,466.484009 593.176880,466.367767 596.596313,468.434052 
	C603.526123,472.621674 610.681580,476.435944 618.462769,480.808014 
	C604.823853,486.398804 589.748169,485.665161 577.634399,495.962158 
	C581.945862,496.501801 585.404968,496.978577 588.874756,497.356903 
	C592.470093,497.748962 596.075806,498.045624 599.715820,498.387634 
	C595.732544,510.226685 582.794434,518.816956 568.890381,518.639343 
	C561.417969,518.543945 553.952209,517.927551 545.035828,517.472351 
	C552.096924,524.589172 558.273682,530.814636 564.450439,537.040100 
	C564.120422,537.539368 563.790405,538.038635 563.460388,538.537903 
	C554.913635,534.193176 546.366943,529.848450 537.065491,525.120056 
	C534.973083,537.908997 532.978088,550.102539 530.917725,562.703125 
z"/>
<path fill="#050505" opacity="1.000000" stroke="none" 
	d="
M466.410370,518.234497 
	C447.143280,519.864197 433.750885,513.422546 425.453217,498.491089 
	C433.278687,497.812897 440.940155,497.148926 449.560547,496.401855 
	C437.270203,486.706268 422.783051,485.760254 408.230804,480.990631 
	C417.492645,475.888641 425.433411,471.222961 433.689026,467.203949 
	C435.412170,466.365112 438.542236,467.422272 440.608704,468.444824 
	C453.408508,474.778656 466.037445,481.457611 478.830200,487.806091 
	C486.408722,491.567017 493.789185,497.398438 503.291962,491.109406 
	C500.686096,500.996613 498.470337,510.347382 492.040375,517.833496 
	C490.967010,519.083191 488.651611,519.944885 486.961853,519.866821 
	C480.255585,519.557251 473.569794,518.803650 466.410370,518.234497 
z"/>
<path fill="#0A0A0A" opacity="1.000000" stroke="none" 
	d="
M537.028503,635.959473 
	C542.631042,638.443237 548.365112,640.143066 551.226501,646.277588 
	C525.444580,642.276123 499.919434,643.500305 474.385284,646.625916 
	C474.154449,646.087341 473.923645,645.548767 473.692810,645.010254 
	C475.312744,643.637024 476.723907,641.779358 478.589203,640.975464 
	C486.200867,637.695374 493.757874,633.080750 501.708191,632.152039 
	C508.886108,631.313477 516.490051,632.120605 523.964783,631.722900 
	C528.111389,631.502258 532.422607,634.373657 537.028503,635.959473 
z"/>
</svg>